<svg aria-hidden="true" style="position: absolute; width: 0; height: 0; overflow: hidden;" version="1.1" xmlns="http://www.w3.org/2000/svg" xmlns:xlink="http://www.w3.org/1999/xlink">
<defs>
<symbol id="icon-publish" viewBox="0 0 20 20">
<path d="M9.967 8.193l-4.967 4.807h3v6h4v-6h3l-5.033-4.807zM18 1h-16c-1.1 0-2 0.9-2 2v12c0 1.1 0.9 2 2 2h4v-2h-4v-9h16v9h-4v2h4c1.1 0 2-0.9 2-2v-12c0-1.1-0.9-2-2-2zM2.5 4.25c-0.414 0-0.75-0.336-0.75-0.75s0.336-0.75 0.75-0.75c0.414 0 0.75 0.336 0.75 0.75s-0.336 0.75-0.75 0.75zM4.5 4.25c-0.414 0-0.75-0.336-0.75-0.75s0.336-0.75 0.75-0.75c0.414 0 0.75 0.336 0.75 0.75s-0.336 0.75-0.75 0.75zM18 4h-12v-1h12.019l-0.019 1z"></path>
</symbol>
<symbol id="icon-home" viewBox="0 0 20 20">
<path d="M20 11.532l-10-7.762-10 7.762v-3.165l10-7.762 10 7.762zM17.5 11.25v7.5h-5v-5h-5v5h-5v-7.5l7.5-5.625z"></path>
</symbol>
<symbol id="icon-signin" viewBox="0 0 20 20">
<path d="M6.25 3.75c0-2.071 1.679-3.75 3.75-3.75s3.75 1.679 3.75 3.75c0 2.071-1.679 3.75-3.75 3.75s-3.75-1.679-3.75-3.75zM15.002 8.75h-0.692l-3.889 7.895 1.454-7.27-1.875-1.875-1.875 1.875 1.454 7.27-3.889-7.895h-0.692c-2.499 0-2.499 1.679-2.499 3.75v6.25h15v-6.25c0-2.071 0-3.75-2.498-3.75z"></path>
</symbol>
<symbol id="icon-search" viewBox="0 0 20 20">
<path d="M19.38 17.019l-4.737-4.029c-0.49-0.441-1.013-0.643-1.437-0.624 1.118-1.31 1.794-3.009 1.794-4.867 0-4.142-3.358-7.5-7.5-7.5s-7.5 3.358-7.5 7.5 3.358 7.5 7.5 7.5c1.857 0 3.557-0.676 4.867-1.794-0.020 0.423 0.183 0.947 0.624 1.437l4.029 4.737c0.69 0.767 1.817 0.831 2.504 0.144s0.623-1.814-0.144-2.504zM7.5 12.5c-2.761 0-5-2.239-5-5s2.239-5 5-5 5 2.239 5 5-2.239 5-5 5z"></path>
</symbol>
<symbol id="icon-signout" viewBox="0 0 20 20">
<path d="M12.5 2.863v2.655c0.707 0.309 1.357 0.75 1.919 1.312 1.181 1.18 1.831 2.75 1.831 4.419s-0.65 3.239-1.831 4.419c-1.18 1.18-2.75 1.831-4.419 1.831s-3.239-0.65-4.419-1.831c-1.18-1.18-1.831-2.75-1.831-4.419s0.65-3.239 1.831-4.419c0.562-0.562 1.212-1.003 1.919-1.312v-2.655c-3.614 1.076-6.25 4.423-6.25 8.387 0 4.832 3.918 8.75 8.75 8.75s8.75-3.918 8.75-8.75c0-3.964-2.636-7.311-6.25-8.387zM8.75 0h2.5v10h-2.5z"></path>
</symbol>
<symbol id="icon-registration" viewBox="0 0 20 20">
<path d="M18.125 2.5h-5.625c0-1.381-1.119-2.5-2.5-2.5s-2.5 1.119-2.5 2.5h-5.625c-0.345 0-0.625 0.28-0.625 0.625v16.25c0 0.345 0.28 0.625 0.625 0.625h16.25c0.345 0 0.625-0.28 0.625-0.625v-16.25c0-0.345-0.28-0.625-0.625-0.625zM10 1.25c0.69 0 1.25 0.56 1.25 1.25s-0.56 1.25-1.25 1.25c-0.69 0-1.25-0.56-1.25-1.25s0.56-1.25 1.25-1.25zM17.5 18.75h-15v-15h2.5v1.875c0 0.345 0.28 0.625 0.625 0.625h8.75c0.345 0 0.625-0.28 0.625-0.625v-1.875h2.5v15z"></path>
<path d="M8.75 16.768l-4.009-4.634 1.143-1.143 2.866 2.241 5.366-4.741 1.143 1.143z"></path>
</symbol>
<symbol id="icon-genre" viewBox="0 0 20 20">
<path d="M19.063 15h-0.313v-4.063c0-1.206-0.981-2.188-2.188-2.188h-5.313v-2.5h0.313c0.516 0 0.938-0.422 0.938-0.938v-3.125c0-0.516-0.422-0.938-0.938-0.938h-3.125c-0.516 0-0.938 0.422-0.938 0.938v3.125c0 0.516 0.422 0.938 0.938 0.938h0.313v2.5h-5.313c-1.206 0-2.188 0.981-2.188 2.188v4.063h-0.313c-0.516 0-0.938 0.422-0.938 0.938v3.125c0 0.516 0.422 0.938 0.938 0.938h3.125c0.516 0 0.938-0.422 0.938-0.938v-3.125c0-0.516-0.422-0.938-0.938-0.938h-0.313v-3.75h5v3.75h-0.313c-0.516 0-0.938 0.422-0.938 0.938v3.125c0 0.516 0.422 0.938 0.938 0.938h3.125c0.516 0 0.938-0.422 0.938-0.938v-3.125c0-0.516-0.422-0.938-0.938-0.938h-0.313v-3.75h5v3.75h-0.313c-0.516 0-0.938 0.422-0.938 0.938v3.125c0 0.516 0.422 0.938 0.938 0.938h3.125c0.516 0 0.938-0.422 0.938-0.938v-3.125c0-0.516-0.422-0.938-0.938-0.938zM3.75 18.75h-2.5v-2.5h2.5v2.5zM11.25 18.75h-2.5v-2.5h2.5v2.5zM8.75 5v-2.5h2.5v2.5h-2.5zM18.75 18.75h-2.5v-2.5h2.5v2.5z"></path>
</symbol>
</defs>
</svg>
